<?xml version="1.0" encoding="UTF-8" standalone="no"?>
<!-- Created with Inkscape (http://www.inkscape.org/) -->

<svg
   width="559.92773mm"
   height="559.92969mm"
   viewBox="0 0 559.92773 559.92969"
   version="1.1"
   id="svg1"
   inkscape:version="1.4.2 (ebf0e940d0, 2025-05-08)"
   xml:space="preserve"
   sodipodi:docname="moclai.tk.svg"
   inkscape:export-filename="moclai.tk.png"
   inkscape:export-xdpi="22.681499"
   inkscape:export-ydpi="22.681499"
   xmlns:inkscape="http://www.inkscape.org/namespaces/inkscape"
   xmlns:sodipodi="http://sodipodi.sourceforge.net/DTD/sodipodi-0.dtd"
   xmlns="http://www.w3.org/2000/svg"
   xmlns:svg="http://www.w3.org/2000/svg"><sodipodi:namedview
     id="namedview1"
     pagecolor="#d1d1d1"
     bordercolor="#838383"
     borderopacity="0.50196078"
     inkscape:showpageshadow="false"
     inkscape:pageopacity="0.0"
     inkscape:pagecheckerboard="0"
     inkscape:deskcolor="#d1d1d1"
     inkscape:document-units="mm"
     showborder="true"
     inkscape:zoom="0.2051189"
     inkscape:cx="1343.1235"
     inkscape:cy="1423.5646"
     inkscape:window-width="1920"
     inkscape:window-height="1048"
     inkscape:window-x="0"
     inkscape:window-y="0"
     inkscape:window-maximized="1"
     inkscape:current-layer="layer1" /><defs
     id="defs1"><inkscape:path-effect
       effect="fillet_chamfer"
       id="path-effect47"
       is_visible="true"
       lpeversion="1"
       nodesatellites_param="F,0,0,1,0,0,0,1 @ F,0,1,1,0,36,0,1 @ F,0,1,1,0,0,0,1 @ F,0,0,1,0,0,0,1 @ F,0,0,1,0,0,0,1 @ F,0,1,1,0,0,0,1 @ F,0,1,1,0,36,0,1 @ F,0,0,1,0,0,0,1"
       radius="0"
       unit="px"
       method="auto"
       mode="F"
       chamfer_steps="1"
       flexible="false"
       use_knot_distance="true"
       apply_no_radius="true"
       apply_with_radius="true"
       only_selected="true"
       hide_knots="false" /><inkscape:path-effect
       effect="fillet_chamfer"
       id="path-effect45"
       is_visible="true"
       lpeversion="1"
       nodesatellites_param="F,0,0,1,0,0,0,1 @ F,0,1,1,0,36,0,1 @ F,0,1,1,0,0,0,1 @ F,0,0,1,0,0,0,1 @ F,0,0,1,0,0,0,1 @ F,0,1,1,0,0,0,1 @ F,0,1,1,0,36,0,1 @ F,0,0,1,0,0,0,1"
       radius="0"
       unit="px"
       method="auto"
       mode="F"
       chamfer_steps="1"
       flexible="false"
       use_knot_distance="true"
       apply_no_radius="true"
       apply_with_radius="true"
       only_selected="true"
       hide_knots="false" /><inkscape:path-effect
       effect="fillet_chamfer"
       id="path-effect36"
       is_visible="true"
       lpeversion="1"
       nodesatellites_param="F,0,0,1,0,0,0,1 @ F,0,1,1,0,36,0,1 @ F,0,1,1,0,0,0,1 @ F,0,0,1,0,0,0,1 @ F,0,0,1,0,0,0,1 @ F,0,1,1,0,0,0,1 @ F,0,1,1,0,36,0,1 @ F,0,0,1,0,0,0,1"
       radius="0"
       unit="px"
       method="auto"
       mode="F"
       chamfer_steps="1"
       flexible="false"
       use_knot_distance="true"
       apply_no_radius="true"
       apply_with_radius="true"
       only_selected="true"
       hide_knots="false" /><inkscape:path-effect
       effect="fillet_chamfer"
       id="path-effect27"
       is_visible="true"
       lpeversion="1"
       nodesatellites_param="F,0,0,1,0,0,0,1 @ F,0,1,1,0,36,0,1 @ F,0,1,1,0,0,0,1 @ F,0,0,1,0,0,0,1 @ F,0,0,1,0,0,0,1 @ F,0,1,1,0,0,0,1 @ F,0,1,1,0,36,0,1 @ F,0,0,1,0,0,0,1"
       radius="0"
       unit="px"
       method="auto"
       mode="F"
       chamfer_steps="1"
       flexible="false"
       use_knot_distance="true"
       apply_no_radius="true"
       apply_with_radius="true"
       only_selected="true"
       hide_knots="false" /><inkscape:path-effect
       effect="fillet_chamfer"
       id="path-effect25"
       is_visible="true"
       lpeversion="1"
       nodesatellites_param="F,0,0,1,0,0,0,1 @ F,0,1,1,0,36,0,1 @ F,0,1,1,0,0,0,1 @ F,0,0,1,0,0,0,1 @ F,0,0,1,0,0,0,1 @ F,0,1,1,0,0,0,1 @ F,0,1,1,0,36,0,1 @ F,0,0,1,0,0,0,1"
       radius="0"
       unit="px"
       method="auto"
       mode="F"
       chamfer_steps="1"
       flexible="false"
       use_knot_distance="true"
       apply_no_radius="true"
       apply_with_radius="true"
       only_selected="true"
       hide_knots="false" /><inkscape:path-effect
       effect="fillet_chamfer"
       id="path-effect23"
       is_visible="true"
       lpeversion="1"
       nodesatellites_param="F,0,0,1,0,0,0,1 @ F,0,0,1,0,51.145231,0,1 @ F,0,0,1,0,0,0,1 @ F,0,0,1,0,0,0,1 @ F,0,0,1,0,0,0,1 @ F,0,0,1,0,0,0,1 @ F,0,0,1,0,51.145231,0,1 @ F,0,1,1,0,0,0,1"
       radius="0"
       unit="px"
       method="auto"
       mode="F"
       chamfer_steps="1"
       flexible="false"
       use_knot_distance="true"
       apply_no_radius="true"
       apply_with_radius="true"
       only_selected="true"
       hide_knots="false" /><inkscape:path-effect
       effect="fillet_chamfer"
       id="path-effect21"
       is_visible="true"
       lpeversion="1"
       nodesatellites_param="F,0,0,1,0,0,0,1 @ F,0,1,1,0,36,0,1 @ F,0,1,1,0,0,0,1 @ F,0,0,1,0,0,0,1 @ F,0,0,1,0,0,0,1 @ F,0,1,1,0,0,0,1 @ F,0,1,1,0,36,0,1 @ F,0,0,1,0,0,0,1"
       radius="0"
       unit="px"
       method="auto"
       mode="F"
       chamfer_steps="1"
       flexible="false"
       use_knot_distance="true"
       apply_no_radius="true"
       apply_with_radius="true"
       only_selected="true"
       hide_knots="false" /><inkscape:path-effect
       effect="interpolate"
       id="path-effect19"
       is_visible="true"
       lpeversion="1"
       trajectory="m 328.93885,175.9549 c -10.47581,27.38556 -31.58821,45.62782 -69.96769,52.86533 C 152.21205,248.95259 40.046092,220.89345 -8.0766101,76.857414 -37.13544,-10.118565 -70.472041,-95.673707 -176.05757,-111.32284"
       equidistant_spacing="true"
       steps="4" /><inkscape:path-effect
       effect="fillet_chamfer"
       id="path-effect16"
       is_visible="true"
       lpeversion="1"
       nodesatellites_param="F,0,1,1,0,0,0,1 @ F,0,1,1,0,36,0,1 @ F,0,1,1,0,0,0,1 @ F,0,1,1,0,0,0,1 @ F,0,1,1,0,0,0,1 @ F,0,1,1,0,0,0,1 @ F,0,1,1,0,36,0,1 @ F,0,1,1,0,0,0,1"
       radius="0"
       unit="px"
       method="auto"
       mode="F"
       chamfer_steps="1"
       flexible="false"
       use_knot_distance="true"
       apply_no_radius="true"
       apply_with_radius="true"
       only_selected="true"
       hide_knots="false" /><inkscape:path-effect
       effect="fillet_chamfer"
       id="path-effect14"
       is_visible="true"
       lpeversion="1"
       nodesatellites_param="F,0,0,1,0,0,0,1 @ F,0,1,1,0,36,0,1 @ F,0,1,1,0,0,0,1 @ F,0,0,1,0,0,0,1 @ F,0,0,1,0,0,0,1 @ F,0,1,1,0,0,0,1 @ F,0,1,1,0,36,0,1 @ F,0,0,1,0,0,0,1"
       radius="0"
       unit="px"
       method="auto"
       mode="F"
       chamfer_steps="1"
       flexible="false"
       use_knot_distance="true"
       apply_no_radius="true"
       apply_with_radius="true"
       only_selected="true"
       hide_knots="false" /><inkscape:path-effect
       effect="fillet_chamfer"
       id="path-effect12"
       is_visible="true"
       lpeversion="1"
       nodesatellites_param="F,0,0,1,0,0,0,1 @ F,0,1,1,0,36,0,1 @ F,0,1,1,0,0,0,1 @ F,0,0,1,0,0,0,1 @ F,0,0,1,0,0,0,1 @ F,0,1,1,0,0,0,1 @ F,0,1,1,0,36,0,1 @ F,0,0,1,0,0,0,1"
       radius="0"
       unit="px"
       method="auto"
       mode="F"
       chamfer_steps="1"
       flexible="false"
       use_knot_distance="true"
       apply_no_radius="true"
       apply_with_radius="true"
       only_selected="true"
       hide_knots="false" /><inkscape:path-effect
       effect="fillet_chamfer"
       id="path-effect6"
       is_visible="true"
       lpeversion="1"
       nodesatellites_param="F,0,0,1,0,0,0,1 @ F,0,1,1,0,35.522652,0,1 @ F,0,0,1,0,0,0,1 @ F,0,0,1,0,0,0,1 @ F,0,0,1,0,0,0,1 @ F,0,0,1,0,0,0,1 @ F,0,1,1,0,35.522652,0,1 @ F,0,0,1,0,0,0,1"
       radius="0"
       unit="px"
       method="auto"
       mode="F"
       chamfer_steps="1"
       flexible="false"
       use_knot_distance="true"
       apply_no_radius="true"
       apply_with_radius="true"
       only_selected="true"
       hide_knots="false" /><inkscape:path-effect
       effect="fillet_chamfer"
       id="path-effect4"
       is_visible="true"
       lpeversion="1"
       nodesatellites_param="F,0,0,1,0,0,0,1 @ F,0,1,1,0,35.522652,0,1 @ F,0,0,1,0,0,0,1 @ F,0,0,1,0,0,0,1 @ F,0,0,1,0,0,0,1 @ F,0,0,1,0,0,0,1 @ F,0,1,1,0,35.522652,0,1 @ F,0,0,1,0,0,0,1"
       radius="0"
       unit="px"
       method="auto"
       mode="F"
       chamfer_steps="1"
       flexible="false"
       use_knot_distance="true"
       apply_no_radius="true"
       apply_with_radius="true"
       only_selected="true"
       hide_knots="false" /><inkscape:path-effect
       effect="fillet_chamfer"
       id="path-effect2"
       is_visible="true"
       lpeversion="1"
       nodesatellites_param="F,0,0,1,0,0,0,1 @ F,0,1,1,0,35.522652,0,1 @ F,0,0,1,0,0,0,1 @ F,0,0,1,0,0,0,1 @ F,0,0,1,0,0,0,1 @ F,0,0,1,0,0,0,1 @ F,0,1,1,0,35.522652,0,1 @ F,0,0,1,0,0,0,1"
       radius="0"
       unit="px"
       method="auto"
       mode="F"
       chamfer_steps="1"
       flexible="false"
       use_knot_distance="true"
       apply_no_radius="true"
       apply_with_radius="true"
       only_selected="true"
       hide_knots="false" /><inkscape:path-effect
       effect="powerstroke"
       message=""
       id="path-effect1"
       is_visible="true"
       lpeversion="1.3"
       scale_width="1"
       interpolator_type="CentripetalCatmullRom"
       interpolator_beta="0.2"
       start_linecap_type="zerowidth"
       end_linecap_type="zerowidth"
       offset_points="0.12703748,39.881291 | 0.12703748,39.881291 | 1.2488268,32.831325 | 0.88333484,34.202062 | 1.5075446,31.129327 | 1.7891126,35.400048 | 2.4450322,32.334565 | 2.8025147,26.08604"
       linejoin_type="round"
       miter_limit="4"
       not_jump="false"
       sort_points="true" /><clipPath
       clipPathUnits="userSpaceOnUse"
       id="clipPath33"><path
         id="path33"
         style="opacity:1;vector-effect:none;fill:#1c5d00;fill-opacity:1;stroke:#2c1904;stroke-width:4;stroke-linecap:square;stop-color:#000000;stop-opacity:1"
         d="m 585.9601,-161.42567 -29.36565,1.5875 v 75.849671 l 31.80114,1.5875 v -78.546141 z m 2.52955,0.42168 v 78.622626 c 44.68043,6.183892 71.9424,47.992347 87.69334,86.6355315 C 745.03871,198.17524 859.66447,258.212 1046.0767,238.29565 c 62.189,-9.10505 52.4494,-59.65751 54.4685,-112.37144 l -7.059,0.34933 c -10.4758,27.38555 -31.5883,45.62799 -69.9678,52.86551 C 916.7593,199.27141 804.5933,171.21227 756.47062,27.176273 727.41177,-59.799693 694.07517,-145.35485 588.48965,-161.00399 Z" /></clipPath></defs><g
     inkscape:label="Layer 1"
     inkscape:groupmode="layer"
     id="layer1"
     transform="translate(-552.59375,135.77734)"><path
       id="rect49"
       style="font-variation-settings:normal;opacity:1;fill:#cdcdcd;fill-opacity:1;stroke:#261700;stroke-width:8;stroke-linecap:square;stroke-linejoin:miter;stroke-miterlimit:4;stroke-dasharray:none;stroke-dashoffset:0;stroke-opacity:1;stop-color:#000000;stop-opacity:1"
       sodipodi:type="inkscape:offset"
       inkscape:radius="31.802034"
       inkscape:original="M 602.26172 -99.974609 C 594.57971 -99.974609 588.39648 -93.789435 588.39648 -86.107422 L 588.39648 374.48242 C 588.39648 382.16443 594.57971 388.34961 602.26172 388.34961 L 1062.8516 388.34961 C 1070.5336 388.34961 1076.7188 382.16443 1076.7188 374.48242 L 1076.7188 -86.107422 C 1076.7188 -93.789435 1070.5336 -99.974609 1062.8516 -99.974609 L 602.26172 -99.974609 z "
       d="m 602.26172,-131.77734 c -24.75229,0 -45.66797,20.92299 -45.66797,45.669918 V 374.48242 c 0,24.74693 20.91566,45.66992 45.66797,45.66992 h 460.58988 c 24.7523,0 45.6699,-20.91755 45.6699,-45.66992 V -86.107422 c 0,-24.752358 -20.9176,-45.669918 -45.6699,-45.669918 z" /><rect
       style="font-variation-settings:normal;opacity:1;vector-effect:none;fill:none;fill-opacity:1;stroke:#261700;stroke-width:4;stroke-linecap:square;stroke-linejoin:miter;stroke-miterlimit:4;stroke-dasharray:none;stroke-dashoffset:0;stroke-opacity:1;-inkscape-stroke:none;stop-color:#000000;stop-opacity:1"
       id="rect47"
       width="488.32291"
       height="488.32291"
       x="588.39563"
       y="-99.974075"
       ry="13.866449" /><g
       id="g46"
       transform="translate(239.32079)"><path
         id="path45"
         style="font-variation-settings:normal;opacity:1;vector-effect:none;fill:#225500;fill-opacity:1;stroke:#261700;stroke-width:4;stroke-linecap:square;stroke-linejoin:miter;stroke-miterlimit:4;stroke-dasharray:none;stroke-dashoffset:0;stroke-opacity:1;-inkscape-stroke:none;stop-color:#000000;stop-opacity:1"
         d="m -108.09781,265.10933 v 32.12528 a 35.033603,35.033603 133.39687 0 1 -34.03978,36 v 4.88756 H -8.3865813 v -4.88756 a 35.033604,35.033604 46.60313 0 1 -34.0397827,-36 v -32.12528 z"
         sodipodi:nodetypes="ccccccccc"
         transform="translate(728.76682)"
         inkscape:original-d="m -108.09781,265.10933 v 68.12528 h -34.03978 v 4.88756 H -8.3865813 v -4.88756 H -42.426364 v -68.12528 z"
         inkscape:path-effect="#path-effect47" /><path
         id="path46"
         style="font-variation-settings:normal;opacity:1;vector-effect:none;fill:#2c9200;fill-opacity:1;stroke:#2c1904;stroke-width:4;stroke-linecap:square;stroke-linejoin:miter;stroke-miterlimit:4;stroke-dasharray:none;stroke-dashoffset:0;stroke-opacity:1;-inkscape-stroke:none;stop-color:#000000;stop-opacity:1"
         d="m -108.09774,249.91989 v 47.31486 c 0.54123,19.3409 -14.69888,35.45857 -34.03978,35.99987 v 2.77089 h 12.08143 c 28.24671,-2e-5 53.938499,-30.83599 53.938499,-59.0827 v -27.00292 z m 33.690774,0 v 27.00292 c 0,28.24671 25.691795,59.08268 53.938501,59.0827 h 12.0819499 v -2.77089 C -27.727415,332.69332 -42.967524,316.57565 -42.426298,297.23475 v -47.31486 z"
         sodipodi:nodetypes="ccccsscccssccccc"
         transform="translate(728.76682)" /></g><path
       id="rect32"
       style="font-variation-settings:normal;opacity:1;vector-effect:none;fill:#552200;fill-opacity:1;stroke:#2c1904;stroke-width:4;stroke-linecap:square;stroke-linejoin:miter;stroke-miterlimit:4;stroke-dasharray:none;stroke-dashoffset:0;stroke-opacity:1;-inkscape-stroke:none;stop-color:#000000;stop-opacity:1"
       d="m 556.5943,-51.359069 29.36569,-4.233333 2.43565,0.47878 v 78.545797 l -31.80134,-3.175 z"
       sodipodi:nodetypes="cccccc" /><path
       style="font-variation-settings:normal;opacity:1;vector-effect:none;fill:#008000;fill-opacity:1;stroke:#261700;stroke-width:4;stroke-linecap:square;stroke-linejoin:miter;stroke-miterlimit:4;stroke-dasharray:none;stroke-dashoffset:0;stroke-opacity:1;-inkscape-stroke:none;stop-color:#000000;stop-opacity:1"
       d="M 774.0741,233.47477 C 805.08646,145.02665 851.20374,81.415891 914.74734,50.747976 L 876.42285,8.2561411 C 832.86211,31.397018 781.49799,76.943814 746.90155,174.98142 Z"
       id="path9"
       sodipodi:nodetypes="ccccc" /><path
       style="font-variation-settings:normal;opacity:1;vector-effect:none;fill:none;fill-opacity:1;stroke:#261700;stroke-width:4;stroke-linecap:square;stroke-linejoin:miter;stroke-miterlimit:4;stroke-dasharray:none;stroke-dashoffset:0;stroke-opacity:1;-inkscape-stroke:none;stop-color:#000000;stop-opacity:1"
       d="M 768.01661,179.82072 C 788.75622,128.45181 826.90144,66.85966 876.3721,45.361944"
       id="path42"
       sodipodi:nodetypes="cc" /><g
       id="g44"
       transform="matrix(1,0,0,-1,239.32079,279.96741)"><path
         id="path43"
         style="font-variation-settings:normal;opacity:1;vector-effect:none;fill:#225500;fill-opacity:1;stroke:#261700;stroke-width:4;stroke-linecap:square;stroke-linejoin:miter;stroke-miterlimit:4;stroke-dasharray:none;stroke-dashoffset:0;stroke-opacity:1;-inkscape-stroke:none;stop-color:#000000;stop-opacity:1"
         d="M -108.09781,20.027895 V 297.23461 a 35.033603,35.033603 133.39687 0 1 -34.03978,36 v 4.88756 H -8.3865813 v -4.88756 a 35.033604,35.033604 46.60313 0 1 -34.0397827,-36 V 20.027895 Z"
         sodipodi:nodetypes="ccccccccc"
         transform="translate(728.76682)"
         inkscape:original-d="M -108.09781,20.027895 V 333.23461 h -34.03978 v 4.88756 H -8.3865813 v -4.88756 H -42.426364 V 20.027895 Z"
         inkscape:path-effect="#path-effect45" /><path
         id="path44"
         style="font-variation-settings:normal;opacity:1;vector-effect:none;fill:#008000;fill-opacity:1;stroke:#261700;stroke-width:4;stroke-linecap:square;stroke-linejoin:miter;stroke-miterlimit:4;stroke-dasharray:none;stroke-dashoffset:0;stroke-opacity:1;-inkscape-stroke:none;stop-color:#000000;stop-opacity:1"
         d="M -108.09774,-20.314637 V 297.23475 c 0.54123,19.3409 -14.69888,35.45857 -34.03978,35.99987 v 2.77089 h 12.08143 c 28.24671,-2e-5 53.938499,-30.83599 53.938499,-59.0827 V -20.314637 Z m 33.690774,0 V 276.92281 c 0,28.24671 25.691795,59.08268 53.938501,59.0827 h 12.0819499 v -2.77089 C -27.727415,332.69332 -42.967524,316.57565 -42.426298,297.23475 V -20.314637 Z"
         sodipodi:nodetypes="ccccsscccssccccc"
         transform="translate(728.76682)" /></g><g
       id="g25"
       transform="translate(2.6458334)"><path
         id="path7"
         style="font-variation-settings:normal;opacity:1;vector-effect:none;fill:#225500;fill-opacity:1;stroke:#261700;stroke-width:4;stroke-linecap:square;stroke-linejoin:miter;stroke-miterlimit:4;stroke-dasharray:none;stroke-dashoffset:0;stroke-opacity:1;-inkscape-stroke:none;stop-color:#000000;stop-opacity:1"
         d="M -108.09781,20.027895 V 297.23461 a 35.033603,35.033603 133.39687 0 1 -34.03978,36 v 4.88756 H -8.3865813 v -4.88756 a 35.033604,35.033604 46.60313 0 1 -34.0397827,-36 V 20.027895 Z"
         sodipodi:nodetypes="ccccccccc"
         transform="translate(728.76682)"
         inkscape:original-d="M -108.09781,20.027895 V 333.23461 h -34.03978 v 4.88756 H -8.3865813 v -4.88756 H -42.426364 V 20.027895 Z"
         inkscape:path-effect="#path-effect12" /><path
         id="path23"
         style="font-variation-settings:normal;opacity:1;vector-effect:none;fill:#008000;fill-opacity:1;stroke:#261700;stroke-width:4;stroke-linecap:square;stroke-linejoin:miter;stroke-miterlimit:4;stroke-dasharray:none;stroke-dashoffset:0;stroke-opacity:1;-inkscape-stroke:none;stop-color:#000000;stop-opacity:1"
         d="M -108.09774,20.027895 V 297.23475 c 0.54123,19.3409 -14.69888,35.45857 -34.03978,35.99987 v 2.77089 h 12.08143 c 28.24671,-2e-5 53.938499,-30.83599 53.938499,-59.0827 V 20.027895 Z m 33.690774,0 V 276.92281 c 0,28.24671 25.691795,59.08268 53.938501,59.0827 h 12.0819499 v -2.77089 C -27.727415,332.69332 -42.967524,316.57565 -42.426298,297.23475 V 20.027895 Z"
         transform="translate(728.76682)"
         sodipodi:nodetypes="ccccsscccssccccc" /></g><path
       id="path11"
       style="font-variation-settings:normal;opacity:1;vector-effect:none;fill:#803300;fill-opacity:1;fill-rule:nonzero;stroke:#2c1904;stroke-width:4;stroke-linecap:square;stroke-linejoin:miter;stroke-miterlimit:4;stroke-dasharray:none;stroke-dashoffset:0;stroke-opacity:1;-inkscape-stroke:none;stop-color:#000000;stop-opacity:1"
       d="m 588.48958,-55.170616 v 78.622591 c 44.68043,6.183892 77.23409,47.992342 92.98503,86.635535 68.85571,193.92112 178.18966,253.95804 364.60189,234.04168 62.189,-9.10505 52.4495,-59.65777 54.4686,-112.37171 l -7.0591,0.34963 c -10.4758,27.38556 -31.5882,45.62783 -69.9677,52.86534 C 916.75921,305.10481 809.88491,277.04567 761.76221,133.00963 732.70338,46.033647 694.07511,-39.521489 588.48958,-55.170616 Z"
       sodipodi:nodetypes="cccsccssc" /><path
       style="font-variation-settings:normal;opacity:1;fill:none;fill-opacity:1;stroke:#2c1904;stroke-width:5;stroke-linecap:square;stroke-linejoin:miter;stroke-miterlimit:4;stroke-dasharray:none;stroke-dashoffset:0;stroke-opacity:1"
       d="m 1113.3052,147.79996 c -1.9114,27.22001 -33.2146,47.67311 -58.9265,56.77968 C 989.73365,227.47549 910.29624,218.65269 849.40046,186.89508 760.93421,140.75927 745.57142,66.663361 722.0179,11.149041 677.50636,-93.762179 640.78683,-118.22515 588.48956,-122.17405 h -31.4392"
       id="path17"
       sodipodi:nodetypes="casscc"
       clip-path="url(#clipPath33)"
       transform="translate(0,105.83334)" /><g
       id="g38"
       transform="translate(-27.52909,-5.7808285)"><circle
         style="font-variation-settings:normal;opacity:1;fill:#803300;fill-opacity:1;stroke:#2c1904;stroke-width:3;stroke-linecap:square;stroke-linejoin:miter;stroke-miterlimit:4;stroke-dasharray:none;stroke-dashoffset:0;stroke-opacity:1"
         id="path37"
         cx="920.35461"
         cy="316.22638"
         r="10.96417" /><path
         style="font-variation-settings:normal;opacity:1;vector-effect:none;fill:#876015;fill-opacity:1;stroke:#2c1904;stroke-width:4;stroke-linecap:square;stroke-linejoin:miter;stroke-miterlimit:4;stroke-dasharray:none;stroke-dashoffset:0;stroke-opacity:1;-inkscape-stroke:none"
         d="m 914.2963,322.81845 11.77509,-12.54157"
         id="path38" /></g><rect
       style="font-variation-settings:normal;opacity:1;fill:none;fill-opacity:1;stroke:#261700;stroke-width:2;stroke-linecap:square;stroke-linejoin:miter;stroke-miterlimit:4;stroke-dasharray:none;stroke-dashoffset:0;stroke-opacity:1;stop-color:#000000;stop-opacity:1"
       id="rect15"
       width="71.589577"
       height="137.84962"
       x="963.9386"
       y="-23.430176"
       ry="6.8924818" /><rect
       style="font-variation-settings:normal;opacity:1;fill:none;fill-opacity:1;stroke:#261700;stroke-width:2;stroke-linecap:square;stroke-linejoin:miter;stroke-miterlimit:4;stroke-dasharray:none;stroke-dashoffset:0;stroke-opacity:1;stop-color:#000000;stop-opacity:1"
       id="rect16"
       width="71.589577"
       height="137.84962"
       x="963.9386"
       y="130.43182"
       ry="6.8924818" /><path
       d="m 1021.9656,21.540627 c -0.781,0.0579 -1.4897,-0.1157 -2.1262,-0.5207 -0.6364,-0.37607 -1.1716,-0.8823 -1.6055,-1.51871 -0.4049,-0.63641 -0.7087,-1.25836 -0.9112,-1.86584 -0.2025,-0.66534 -0.3471,-1.37407 -0.4339,-2.1262 -0.058,-0.75212 -0.087,-1.50424 -0.087,-2.25636 v -1.47532 c 0.029,-0.49177 0.043,-0.96908 0.043,-1.43192 0.029,-1.8224503 0.101,-3.6449003 0.217,-5.4673503 0.1157,-1.82245 0.188,-3.6449 0.2169,-5.46735003 V -1.9776633 c 0,-0.69427 -0.043,-1.44639 -0.1301,-2.25636 -0.058,-0.83891 -0.1882,-1.61996 -0.3906,-2.34315 -0.2025,-0.75213 -0.5207,-1.35961 -0.9546,-1.82245 -0.4339,-0.49177 -1.0269,-0.73766 -1.779,-0.73766 -0.3471,0 -0.6943,0.0145 -1.0414,0.0434 -0.3471,0.0289 -0.6654,0.10125 -0.9547,0.21696 -0.6075,0.23142 -1.1426,0.69426 -1.6055,1.38853 -0.4339,0.66534 -0.8099,1.38853 -1.1281,2.16958 -0.3182,0.75213 -0.5786,1.41747 -0.7811,1.99602 -0.4629,1.30175 -0.8534,2.82045997 -1.1716,4.55613 -0.2893,1.70673 -0.5207,3.47133 -0.6942,5.29378 -0.1736,1.79352 -0.3038,3.5002603 -0.3906,5.1202203 0,0.0868 -0.014,0.43391 -0.043,1.0414 0,0.60748 -0.014,1.28728 -0.043,2.0394 -0.029,0.7232 -0.072,1.37408 -0.1302,1.95263 -0.029,0.54963 -0.058,0.8389 -0.087,0.86783 -0.3761,0.54963 -0.7087,0.82444 -0.998,0.82444 -0.1736,0 -0.3472,-0.0723 -0.5207,-0.21695 -0.1447,-0.17357 -0.3038,-0.39053 -0.4773,-0.65088 0,-0.0289 -0.014,-0.0868 -0.043,-0.17357 v -0.30374 c 0,-0.37606 0.014,-0.8389 0.043,-1.38853 0.029,-0.54963 0.043,-0.86783 0.043,-0.95462 0.058,-1.53317 0.1014,-3.05188 0.1302,-4.55612 l 0.087,-4.5995203 c 0,-0.49177 0.014,-1.14265 0.043,-1.95262 0.029,-0.80998 0.043,-1.67781 0.043,-2.60350003 0,-1.27283 -0.058,-2.56010997 -0.1735,-3.86185997 -0.087,-1.33068 -0.2748,-2.51672 -0.5641,-3.55812 -0.2893,-1.0414 -0.7377,-1.77906 -1.3452,-2.21297 -0.2314,-0.17357 -0.4484,-0.27482 -0.6509,-0.30375 -0.2025,-0.0579 -0.4628,-0.0868 -0.781,-0.0868 -1.30169,0 -2.37209,0.37606 -3.21099,1.12818 -0.8389,0.7232 -1.5042,1.66335 -1.996,2.82046 -0.4918,1.12819 -0.8534,2.32869 -1.0848,3.60151 -0.2314,1.27281997 -0.376,2.44439997 -0.4339,3.51473 0,0.17357 -0.029,0.63641 -0.087,1.38853 -0.029,0.75212 -0.086,1.67781 -0.1736,2.77707 -0.058,1.07033 -0.1303,2.21297 -0.2169,3.42794 -0.058,1.1860403 -0.1303,2.3286903 -0.217,3.4279403 -0.058,1.09925 -0.1158,2.05387 -0.1735,2.86385 -0.058,0.80998 -0.1014,1.34514 -0.1302,1.60549 -0.029,0.11571 -0.058,0.2025 -0.087,0.26035 v 0.0434 c -0.3761,0.49177 -0.7232,0.73766 -1.0414,0.73766 -0.2893,0 -0.6219,-0.30374 -0.998,-0.91122 -0.029,-0.0579 -0.043,-0.10126 -0.043,-0.13018 v -0.0868 l 0.043,-0.56409 c 0.058,-0.54963 0.1014,-1.0848 0.1302,-1.6055 l 0.087,-1.64888 c 0.1736,-2.69028 0.2604,-5.3950303 0.2604,-8.1142403 0,-1.67781 -0.043,-3.34116 -0.1302,-4.99004003 -0.087,-1.56209997 -0.2748,-3.06634997 -0.5641,-4.51273997 -0.2603,-1.47531 -0.7087,-2.79153 -1.3451,-3.94864 -0.6075,-1.18604 -1.4753,-2.1117297 -2.6035,-2.7770597 -1.1282,-0.69427 -2.6035,-1.0414 -4.426,-1.0414 -0.3761,0 -0.7521,0.0579 -1.1281,0.17356 -0.3761,0.11571 -0.7377,0.26035 -1.0848,0.43392 -1.5043,0.72319 -2.6325,1.7935197 -3.3846,3.2109797 -0.7232,1.41746 -1.0848,2.95063 -1.0848,4.59952 0,1.27282 0.2459,2.45885997 0.7377,3.55811997 0.4917,1.09925003 1.2149,1.98155003 2.1696,2.64689003 0.9835,0.63641 2.1696,0.95461 3.5581,0.95461 1.0125,0 1.9526,-0.20249 2.8204,-0.60748 0.81,-0.43391 1.403,-1.02693 1.7791,-1.77906 0.405,-0.78105003 0.6075,-1.57656003 0.6075,-2.38654003 0,-1.04139997 -0.3037,-1.96708997 -0.9112,-2.77706997 -0.5786,-0.8389 -1.432,-1.25835 -2.5602,-1.25835 -0.1157,0 -0.2458,0.0145 -0.3905,0.0434 -0.1446,0 -0.2892,0.0145 -0.4339,0.0434 -0.1735,0.0289 -0.3471,0.0868 -0.5207,0.17357 -0.1447,0.0579 -0.3182,0.0868 -0.5207,0.0868 -0.405,0 -0.7232,-0.10125 -0.9546,-0.30374 -0.2025,-0.20249 -0.3038,-0.43392 -0.3038,-0.69427 0,-0.43391 0.2459,-0.78105 0.7377,-1.0414 0.1736,-0.11571 0.5063,-0.2025 0.998,-0.26035 0.5207,-0.0579 0.8534,-0.10126 0.998,-0.13017 1.3307,-0.0579 2.4299,0.20248 3.2978,0.78105 0.8967,0.54963 1.5621,1.30175 1.996,2.25636 0.4629,0.95462 0.6943,1.96709 0.6943,3.03742 0,1.18603997 -0.2893,2.35761 -0.8679,3.51472 -0.5785,1.12819 -1.4608,1.99602 -2.6469,2.6035 -1.1281,0.60749 -2.3575,0.91123 -3.6882,0.91123 -1.9382,0 -3.5582,-0.44838 -4.8599,-1.34514 -1.3017,-0.92569 -2.2708,-2.11173 -2.9073,-3.55812 -0.6364,-1.44639003 -0.9546,-2.95063 -0.9546,-4.51273 0,-1.93816 0.4629,-3.804 1.3886,-5.59753 0.9257,-1.7935197 2.3142,-3.1386597 4.1656,-4.0354197 1.186,-0.54963 2.4877,-0.82444 3.9052,-0.82444 2.0828,0 3.7895,0.46284 5.1202,1.38853 1.3596,0.89676 2.4155,2.0828 3.1676,3.5581197 0.7811,1.47531 1.3307,3.0808 1.6489,4.81647 0.3471,-1.09925 0.8389,-2.18404 1.4753,-3.25437 0.6364,-1.09926 1.4319,-2.01049 2.3866,-2.7336797 0.9546,-0.75212 2.0828,-1.12818 3.38449,-1.12818 1.4753,0 2.6324,0.3616 3.4713,1.08479 0.8389,0.6942697 1.4609,1.6199597 1.8659,2.7770697 0.4339,1.12818 0.7232,2.34315 0.8678,3.6449 l 0.087,-0.26035 c 0.3761,-1.15711 0.8534,-2.2853 1.4319,-3.38455 0.6075,-1.12819 1.3741,-2.05388 2.2998,-2.7770697 0.9257,-0.75212 2.0828,-1.12818 3.4713,-1.12818 1.3017,0 2.3287,0.3182 3.0808,0.95461 0.7811,0.6074897 1.3596,1.4174697 1.7357,2.4299397 0.3761,0.98354 0.622,2.02494 0.7377,3.1242 0.1157,1.09925 0.1735,2.12619 0.1735,3.0808 0,2.02494997 -0.058,4.03543 -0.1735,6.03145 -0.1157,1.96709 -0.2025,3.9631 -0.2604,5.9880503 0,0.28927 -0.014,0.63641 -0.043,1.0414 v 1.30175 c 0,0.89676 0.058,1.85138 0.1736,2.86385 0.1157,0.98354 0.3615,1.83691 0.7376,2.5601 0.3761,0.7232 0.9546,1.15712 1.7357,1.30175 0.087,0.0289 0.1302,0.0723 0.1302,0.13018 0.087,-0.17357 0.3327,-0.26035 0.7376,-0.26035 0.3182,0 0.6364,0.0723 0.9547,0.21696 0.3182,0.14464 0.4773,0.37606 0.4773,0.69426 0,0.26035 -0.1736,0.5641 -0.5207,0.91123 -0.1157,0.11571 -0.3472,0.2025 -0.6943,0.26035 -0.3182,0.0868 -0.5496,0.14464 -0.6943,0.17357 z m -24.19079,39.45735 c -2.0828,0 -3.7895,-0.5207 -5.1202,-1.5621 -1.3017,-1.07033 -2.2564,-2.42993 -2.8639,-4.07881 -0.6075,-1.67781 -0.9112,-3.42794 -0.9112,-5.25039 0,-0.63641 0.1157,-1.43193 0.3471,-2.38655 0.2315,-0.95461 0.5641,-1.93816 0.998,-2.95063 0.4629,-1.0414 0.998,-1.99602 1.6055,-2.86385 0.6365,-0.89676 1.3452,-1.59103 2.1262,-2.0828 0.7811,-0.5207 1.62,-0.72319 2.5167,-0.60748 0.6654,-0.28928 1.4031,-0.43392 2.213,-0.43392 0.8389,0 1.67779,0.1591 2.51669,0.47731 0.8679,0.28928 1.5766,0.73766 2.1262,1.34514 l 0.7811,0.82444 v -0.13017 c 0,-0.37606 0.1157,-0.65087 0.3471,-0.82444 0.2314,-0.17357 0.4918,-0.26035 0.7811,-0.26035 0.2893,0 0.5496,0.0868 0.781,0.26035 0.2314,0.17357 0.3471,0.44838 0.3471,0.82444 0,0.43391 -0.072,0.85337 -0.2169,1.25836 -0.1157,0.40499 -0.2748,0.79551 -0.4773,1.17157 0.4917,1.01247 0.8533,2.09727 1.0848,3.25438 0.2314,1.12818 0.3471,2.2419 0.3471,3.34115 0,1.7646 -0.3761,3.47134 -1.1282,5.12022 -0.7521,1.61995 -1.8225,2.95063 -3.211,3.99203 -1.3885,1.0414 -3.05189,1.5621 -4.98999,1.5621 z m 0.6943,-15.75117 c 0.8389,0 1.64879,-0.13018 2.42989,-0.39053 0.7811,-0.28927 1.4609,-0.70872 2.0394,-1.25835 -0.1447,-0.23143 -0.3182,-0.44839 -0.5207,-0.65088 -0.1735,-0.23142 -0.3616,-0.44838 -0.5641,-0.65087 -0.3761,-0.34713 -0.8823,-0.63641 -1.5187,-0.86784 -0.60749,-0.23142 -1.21489,-0.34713 -1.82239,-0.34713 -0.6365,0 -1.215,0.1591 -1.7357,0.47731 -0.4918,0.31821 -0.7377,0.85337 -0.7377,1.60549 0,0.60748 0.2314,1.11372 0.6943,1.51871 0.4918,0.37606 1.0704,0.56409 1.7357,0.56409 z m -0.6943,13.49481 c 1.5043,0 2.77709,-0.40499 3.81849,-1.21497 1.0703,-0.83891 1.8803,-1.89477 2.4299,-3.16759 0.5785,-1.30175 0.8678,-2.6469 0.8678,-4.03543 0,-0.78105 -0.072,-1.57656 -0.2169,-2.38654 -0.1157,-0.80997 -0.3327,-1.59102 -0.6509,-2.34315 -0.7811,0.63641 -1.6489,1.11372 -2.6035,1.43193 -0.9546,0.31821 -1.93809,0.47731 -2.95059,0.47731 -1.5911,0 -2.7627,-0.46285 -3.5148,-1.38854 -0.7521,-0.95461 -1.1137,-1.98155 -1.0848,-3.08081 -0.8389,0.92569 -1.5042,2.03941 -1.996,3.34116 -0.4917,1.30175 -0.7376,2.54565 -0.7376,3.73169 0,1.44639 0.2169,2.83492 0.6508,4.1656 0.4339,1.33067 1.1427,2.41546 2.1262,3.25437 0.9836,0.80998 2.2709,1.21497 3.8619,1.21497 z m 0.043,7.15962 c -0.4629,0 -0.8534,-0.1591 -1.1716,-0.47731 -0.2893,-0.3182 -0.4339,-0.69426 -0.4339,-1.12818 0,-0.46285 0.1446,-0.83891 0.4339,-1.12818 0.3182,-0.28928 0.7087,-0.43392 1.1716,-0.43392 0.4629,0 0.8389,0.14464 1.1282,0.43392 0.2893,0.28927 0.4339,0.66533 0.4339,1.12818 0,0.43392 -0.1446,0.80998 -0.4339,1.12818 -0.2893,0.31821 -0.6653,0.47731 -1.1282,0.47731 z m -4.1222,-29.41955 c -0.2025,0 -0.3761,-0.0868 -0.5207,-0.26035 -0.1447,-0.17357 -0.217,-0.3616 -0.217,-0.56409 0,-0.23142 0.1157,-0.46284 0.3472,-0.69427 l 4.2957,-3.77507 c 0.2025,-0.14464 0.4195,-0.21696 0.6509,-0.21696 0.2893,0 0.5062,0.0723 0.6509,0.21696 l 4.29579,3.77507 c 0.2314,0.2025 0.3471,0.43392 0.3471,0.69427 0,0.20249 -0.072,0.39052 -0.217,0.56409 -0.1446,0.17357 -0.3182,0.26035 -0.5207,0.26035 -0.1157,0 -0.2603,-0.0579 -0.4339,-0.17356 l -4.12219,-3.08081 -4.1222,3.08081 c -0.1736,0.11571 -0.3182,0.17356 -0.4339,0.17356 z m 4.0354,65.729483 c -1.996,0 -3.6738,-0.50623 -5.0334,-1.51871 -1.3596,-1.041403 -2.3865,-2.372073 -3.0808,-3.992033 -0.6943,-1.61995 -1.0414,-3.29776 -1.0414,-5.03343 0,-1.53317 0.2748,-3.03742 0.8244,-4.51274 0.5785,-1.47531 1.4464,-2.70474 2.6035,-3.68829 0.7521,-0.66534 1.6634,-1.15711 2.7337,-1.47532 1.0703,-0.34713 2.1551,-0.5207 3.2544,-0.5207 1.186,0 2.29969,0.2025 3.34109,0.60749 1.0414,0.40499 1.8948,1.02694 2.5601,1.86584 0.6653,0.83891 0.998,1.9237 0.998,3.25437 0,1.01248 -0.3905,1.82246 -1.1715,2.42994 -0.2893,0.2025 -0.5642,0.30374 -0.8245,0.30374 -0.2603,0 -0.4773,-0.0868 -0.6509,-0.26035 -0.1446,-0.20249 -0.2169,-0.44838 -0.2169,-0.73766 0,-0.37606 0.1157,-0.69426 0.3471,-0.95462 0.2025,-0.23142 0.3038,-0.52069 0.3038,-0.86783 0,-0.54962 -0.2459,-1.08479 -0.7377,-1.60549 -0.4629,-0.54962 -1.0414,-0.998 -1.7357,-1.34514 -0.66529,-0.34713 -1.30169,-0.5207 -1.90919,-0.5207 -1.6778,0 -3.0808,0.40499 -4.209,1.21496 -1.0993,0.78106 -1.9382,1.80799 -2.5167,3.08081 -0.5497,1.2439 -0.8245,2.54565 -0.8245,3.90525 0,1.35961 0.2748,2.67582 0.8245,3.94864 0.5785,1.2439 1.4174,2.25638 2.5167,3.03742 1.1282,0.78106 2.5167,1.17158 4.1656,1.17158 1.0125,0 2.08279,-0.17356 3.21099,-0.5207 1.1282,-0.34713 2.1551,-0.85337 3.0808,-1.51871 0.9546,-0.69426 1.6199,-1.53317 1.996,-2.51672 0.087,-0.20249 0.1591,-0.40498 0.217,-0.60748 0.087,-0.23142 0.1735,-0.44838 0.2603,-0.65088 0.2025,-0.5207 0.5352,-0.78105 0.998,-0.78105 0.3182,0 0.593,0.14464 0.8245,0.43392 0.2603,0.26035 0.3471,0.59302 0.2603,0.99801 -0.029,0.14464 -0.1444,0.44838 -0.3471,0.91122 -0.1736,0.43392 -0.3616,0.85338 -0.5641,1.25836 -0.2025,0.40499 -0.3326,0.65088 -0.3905,0.73766 -0.8968,1.2439 -1.8514,2.18405 -2.8639,2.820463 -1.0125,0.63641 -2.1117,1.07033 -3.2977,1.30175 -1.1861,0.23142 -2.48779,0.34713 -3.90529,0.34713 z m 15.10029,75.8698 c -1.3885,0 -2.8494,-0.21696 -4.3826,-0.65087 -1.5331,-0.43392 -3.0518,-0.98355 -4.5561,-1.64889 -1.4753,-0.66534 -2.8494,-1.35961 -4.12219,-2.0828 -1.7646,1.70674 -4.0644,2.56011 -6.8993,2.56011 -0.2603,0 -0.5351,-0.0145 -0.8244,-0.0434 -0.2893,0 -0.5785,-0.0145 -0.8678,-0.0434 -0.9836,-0.14464 -2.0395,-0.43392 -3.1676,-0.86784 -1.1282,-0.40499 -2.1262,-0.998 -2.9941,-1.77905 -0.8678,-0.78105 -1.4319,-1.73567 -1.6922,-2.86385 -0.029,-0.23143 -0.072,-0.44839 -0.1302,-0.65088 -0.029,-0.23142 -0.043,-0.43391 -0.043,-0.60748 0,-0.86783 0.3471,-1.66335 1.0414,-2.38654 0.405,-0.43392 0.8678,-0.73766 1.3885,-0.91123 0.5207,-0.20249 1.0848,-0.30374 1.6923,-0.30374 0.9835,0 2.0394,0.18803 3.1676,0.56409 1.1282,0.37606 2.2419,0.85337 3.3412,1.43193 1.0992,0.54963 2.1261,1.11372 3.0808,1.69227 0.9546,0.57855 1.7501,1.05586 2.3865,1.43193 0.6075,-0.98355 1.04139,-2.11173 1.30179,-3.38455 0.2603,-1.27283 0.4339,-2.56011 0.5207,-3.86186 0.087,-1.30175 0.1446,-2.50226 0.1735,-3.60151 -0.2025,0.0289 -0.405,0.0434 -0.6075,0.0434 h -0.564 c -0.98359,0 -1.95269,-0.11571 -2.90729,-0.34713 -0.9257,-0.23143 -1.8369,-0.62195 -2.7337,-1.17158 -1.0992,-0.72319 -2.0393,-1.64888 -2.8204,-2.77706 -0.7811,-1.15711 -1.1716,-2.38655 -1.1716,-3.6883 0,-0.5207 0.072,-1.0414 0.217,-1.5621 0.1735,-0.54963 0.4339,-1.08479 0.781,-1.60549 0.1157,-0.20249 0.3038,-0.44838 0.5641,-0.73766 0.2893,-0.3182 0.5785,-0.60748 0.8678,-0.86783 0.3182,-0.28927 0.5786,-0.4773 0.7811,-0.56409 0.1735,-0.0868 0.3616,-0.13017 0.5641,-0.13017 0.2893,0 0.5207,0.0868 0.6942,0.26035 0.2025,0.17357 0.3038,0.40499 0.3038,0.69426 0,0.34713 -0.1302,0.66534 -0.3905,0.95462 -0.1157,0.11571 -0.2459,0.21695 -0.3906,0.30374 -0.1446,0.0868 -0.2892,0.18803 -0.4339,0.30374 -0.4917,0.46285 -0.8533,0.95462 -1.0848,1.47532 -0.2314,0.49177 -0.3471,1.01247 -0.3471,1.5621 0,0.89676 0.2603,1.76459 0.781,2.6035 0.5497,0.80997 1.2729,1.47531 2.1696,1.99601 0.8679,0.5207 1.7936,0.86783 2.7771,1.0414 0.9835,0.14464 1.96709,0.18803 2.95059,0.13018 0.029,-0.86783 0.043,-1.7212 0.043,-2.56011 l 0.087,-2.6035 c 0.029,-0.86783 0.101,-1.86584 0.217,-2.99402 0.1157,-1.15711 0.3181,-2.29976 0.6074,-3.42794 0.3183,-1.15711 0.7811,-2.15512 1.3886,-2.99403 0.6075,-0.86783 1.4319,-1.43192 2.4733,-1.69227 0.2314,-0.0579 0.4628,-0.10126 0.6943,-0.13018 0.2603,-0.0289 0.4917,-0.0434 0.6942,-0.0434 1.3307,0 2.5457,0.50624 3.6449,1.51871 0.6943,0.66534 1.1861,1.44639 1.4754,2.34315 0.3182,0.89676 0.4773,1.80798 0.4773,2.73367 0,1.5621 -0.3471,3.06634 -1.0414,4.51273 -0.9257,1.93817 -2.1407,3.51473 -3.6449,4.7297 -1.4753,1.21497 -3.1532,2.02494 -5.0335,2.42993 -0.029,1.18604 -0.087,2.40101 -0.1735,3.6449 -0.058,1.21497 -0.1593,2.41547 -0.3038,3.60151 -0.2603,1.90923 -0.8244,3.55812 -1.6923,4.94665 1.7935,0.98354 3.6883,1.8803 5.6844,2.69028 1.996,0.80998 3.9631,1.21497 5.9012,1.21497 h 0.5207 c 0.1736,0 0.3472,-0.0145 0.5207,-0.0434 0.3471,-0.0579 0.5641,-0.17358 0.6509,-0.34714 -0.029,-0.40499 0.073,-0.73766 0.3037,-0.99801 0.2604,-0.26035 0.5352,-0.39052 0.8245,-0.39052 0.405,0 0.6943,0.21696 0.8678,0.65087 0.058,0.11571 0.1014,0.24589 0.1302,0.39053 0.029,0.14464 0.043,0.27481 0.043,0.39052 0,0.66534 -0.2748,1.21497 -0.8245,1.64889 -0.5207,0.46284 -1.0847,0.72319 -1.6922,0.78105 -0.2025,0.0289 -0.405,0.0434 -0.6075,0.0434 -0.2025,0.0289 -0.4195,0.0434 -0.6509,0.0434 z m -9.4594,-20.43747 c 2.9796,-0.78105 5.236,-2.76261 6.7691,-5.94466 0.5497,-1.09926 0.8245,-2.2853 0.8245,-3.55812 0,-0.75212 -0.1157,-1.46085 -0.3472,-2.12619 -0.2314,-0.66534 -0.6219,-1.22943 -1.1715,-1.69227 -0.3183,-0.26035 -0.6943,-0.47731 -1.1282,-0.65088 -0.4339,-0.17357 -0.8534,-0.26035 -1.2584,-0.26035 -0.5785,0 -1.0558,0.18803 -1.4319,0.56409 -0.4629,0.49177 -0.8389,1.27282 -1.1282,2.34315 -0.2893,1.0414 -0.5062,2.2419 -0.6509,3.60151 -0.1446,1.33068 -0.2603,2.67582 -0.3471,4.03542 -0.058,1.35961 -0.1014,2.58904 -0.1302,3.6883 z m -10.45739,16.48883 c 2.0828,0 3.7317,-0.5207 4.9467,-1.5621 -0.7521,-0.49177 -1.2873,-0.82444 -1.6055,-0.99801 -0.2893,-0.17357 -0.6798,-0.40499 -1.1716,-0.69427 -0.2893,-0.17357 -0.7666,-0.43392 -1.4319,-0.78105 -0.6653,-0.34713 -1.4175,-0.69427 -2.2564,-1.0414 -0.8389,-0.37606 -1.6633,-0.69426 -2.4733,-0.95461 -0.81,-0.26035 -1.5187,-0.39053 -2.1262,-0.39053 -0.5496,0 -0.9546,0.14464 -1.215,0.43392 -0.087,0.0868 -0.159,0.26035 -0.2169,0.5207 -0.029,0.23142 -0.043,0.49177 -0.043,0.78105 0,0.37606 0.043,0.72319 0.1302,1.0414 0.2314,0.69427 0.6798,1.30175 1.3451,1.82245 0.6653,0.49177 1.4175,0.8823 2.2564,1.17157 0.8389,0.28928 1.6199,0.47731 2.3431,0.5641 0.2603,0.0289 0.5207,0.0434 0.7811,0.0434 0.2603,0.0289 0.5062,0.0434 0.7376,0.0434 z m 2.0828,40.11615 c -1.3017,0 -2.3865,-0.27482 -3.2543,-0.82444 -0.8679,-0.57856 -1.5766,-1.31622 -2.1262,-2.21298 -0.5207,-0.92569 -0.8968,-1.9237 -1.1282,-2.99402 -0.2315,-1.09926 -0.3472,-2.16959 -0.3472,-3.21099 0,-2.05388 0.5063,-4.06436 1.5188,-6.03144 1.0125,-1.96709 2.3721,-3.52919 4.0788,-4.6863 1.4753,-0.98355 3.1241,-1.47532 4.9466,-1.47532 1.0703,0 2.06829,0.20249 2.99399,0.60749 0.9547,0.40498 1.7213,1.04139 2.2998,1.90923 0.6075,0.8389 0.9112,1.93816 0.9112,3.29777 0,0.54962 -0.072,1.50424 -0.2169,2.86385 -0.1447,1.33067 -0.217,2.7192 -0.217,4.1656 0,1.09925 0.072,2.14065 0.217,3.1242 0.1735,0.95461 0.4628,1.73566 0.8678,2.34315 0.4339,0.60748 1.0414,0.91122 1.8225,0.91122 0.376,0 0.6508,0.11571 0.8244,0.34714 0.1735,0.23142 0.2603,0.49177 0.2603,0.78105 0,0.26034 -0.087,0.50623 -0.2603,0.73765 -0.1736,0.23142 -0.4484,0.34714 -0.8244,0.34714 -1.1282,0 -2.0539,-0.26035 -2.7771,-0.78105 -0.7232,-0.54963 -1.2728,-1.2439 -1.6489,-2.0828 -0.3761,-0.86784 -0.622,-1.7646 -0.7377,-2.69029 -0.4628,0.89676 -1.0413,1.77906 -1.7356,2.6469 -0.69429,0.8389 -1.50429,1.53316 -2.42999,2.0828 -0.8967,0.54962 -1.9092,0.82444 -3.0374,0.82444 z m 0,-2.21298 c 0.9835,0 1.8369,-0.28928 2.5601,-0.86783 0.7521,-0.60749 1.403,-1.38854 1.9527,-2.34315 0.57849,-0.95462 1.05579,-1.98156 1.43189,-3.08081 0.405,-1.09926 0.7232,-2.15512 0.9546,-3.16759 0.2603,-1.0414 0.4628,-1.9237 0.6075,-2.64689 0.087,-0.49178 0.1302,-0.94016 0.1302,-1.34514 0,-0.37607 -0.043,-0.73767 -0.1302,-1.0848 -0.087,-0.34714 -0.2459,-0.6798 -0.4773,-0.998 -0.3761,-0.49178 -0.8678,-0.85338 -1.4753,-1.0848 -0.57859,-0.23142 -1.20059,-0.34713 -1.86589,-0.34713 -0.6364,0 -1.2873,0.10124 -1.9526,0.30374 -0.6364,0.20249 -1.2005,0.46284 -1.6923,0.78105 -1.3885,0.95462 -2.5167,2.2419 -3.3845,3.86186 -0.8389,1.61995 -1.2584,3.2833 -1.2584,4.99004 0,1.07032 0.1302,2.15512 0.3905,3.25438 0.2604,1.07032 0.7233,1.96708 1.3886,2.69028 0.6943,0.72319 1.6344,1.08479 2.8204,1.08479 z m 1.3018,21.93825 c -0.5497,0 -1.0125,-0.2025 -1.3886,-0.60748 -0.3761,-0.40499 -0.5641,-0.8823 -0.5641,-1.43193 0,-0.54963 0.188,-1.02694 0.5641,-1.43192 0.3761,-0.40499 0.8389,-0.60748 1.3886,-0.60748 0.5207,0 0.969,0.20249 1.3451,0.60748 0.3761,0.40498 0.5641,0.88229 0.5641,1.43192 0,0.54963 -0.188,1.02694 -0.5641,1.43193 -0.3761,0.40498 -0.8244,0.60748 -1.3451,0.60748 z m 2.0828,23.77864 c -0.7811,0 -1.5187,-0.33267 -2.213,-0.99801 -0.6364,-0.63642 -1.0703,-1.46086 -1.3018,-2.47333 -0.2314,-1.01248 -0.3471,-2.11173 -0.3471,-3.29776 0,-1.15712 0.072,-2.34316 0.217,-3.55812 0.1446,-1.21497 0.2748,-2.34315 0.3905,-3.38455 0.1446,-1.07033 0.2169,-1.95263 0.2169,-2.64689 0,-0.86784 -0.1302,-1.43193 -0.3905,-1.69228 -0.7521,-0.34714 -1.1282,-0.80998 -1.1282,-1.38853 0,-0.28928 0.1013,-0.52071 0.3038,-0.69427 0.2314,-0.17357 0.4917,-0.26035 0.781,-0.26035 0.405,0 0.7666,0.11571 1.0848,0.34714 0.3182,0.23142 0.5786,0.49177 0.7811,0.78105 0.3182,0.40498 0.5207,0.89675 0.6074,1.47531 0.1157,0.57856 0.1736,1.2005 0.1736,1.86584 0,0.80998 -0.043,1.69228 -0.1302,2.6469 -0.087,0.92568 -0.188,1.85137 -0.3037,2.77706 -0.087,0.80998 -0.1736,1.59103 -0.2604,2.34315 -0.058,0.72319 -0.087,1.41746 -0.087,2.0828 0,0.78105 0.072,1.47532 0.2169,2.0828 0.1447,0.60748 0.3906,1.07033 0.7377,1.38854 0.2025,0.20249 0.4483,0.30374 0.7376,0.30374 0.5207,0 1.0125,-0.27482 1.4754,-0.82444 0.49169,-0.54964 0.83889,-1.01248 1.04139,-1.38854 0.1157,-0.2025 0.2169,-0.40499 0.3037,-0.60748 0.087,-0.23142 0.188,-0.44838 0.3037,-0.65088 0.2025,-0.46284 0.5352,-0.69426 0.998,-0.69426 0.2893,0 0.5497,0.10124 0.7811,0.30374 0.2603,0.20249 0.3905,0.46284 0.3905,0.78105 0,0.0868 -0.029,0.21695 -0.087,0.39052 -0.2025,0.63641 -0.5785,1.34514 -1.1281,2.1262 -0.5207,0.78104 -1.1427,1.46084 -1.8659,2.0394 -0.72319,0.54963 -1.48979,0.82445 -2.29969,0.82445 z"
       id="text17"
       style="font-size:43.3917px;font-family:'Twinkle Star';-inkscape-font-specification:'Twinkle Star, Normal';letter-spacing:-9.26042px;word-spacing:-31.75px;writing-mode:tb-rl;text-orientation:upright;white-space:pre;inline-size:440.49;fill:#a05c00;stroke-width:2;stroke-linecap:square"
       aria-label="Mộc Lai "
       sodipodi:nodetypes="cccccsccccscccsscccccccccccscccsscccsscsccsccscccccccccscsccccsccccssccsscsccscscccscscccccsccscssscscccccsccccccsccsscccscsccsssscccsccssccccscccssssscccscssscccccscscssccsccssccssscsscscssssssssccsccssscccsscsscccsssscscscsccsccsccssccccscccscssscsccscccsccsccsscscsscsscccscccccscscsccscccccccccscsccsccccccssssccsccscccccccsscsscccccccccscssccsccsccccscccsscsccscsccssssscccccsscccccssccscccsccssssssssssccssscscscssccscccsscsccccscsccccc" /><g
       id="g18"
       transform="rotate(60.472837,940.89583,116.1653)"><circle
         style="font-variation-settings:normal;opacity:1;fill:#803300;fill-opacity:1;stroke:#2c1904;stroke-width:3;stroke-linecap:square;stroke-linejoin:miter;stroke-miterlimit:4;stroke-dasharray:none;stroke-dashoffset:0;stroke-opacity:1"
         id="circle18"
         cx="920.35461"
         cy="316.22638"
         r="10.96417" /><path
         style="font-variation-settings:normal;opacity:1;vector-effect:none;fill:#876015;fill-opacity:1;stroke:#2c1904;stroke-width:4;stroke-linecap:square;stroke-linejoin:miter;stroke-miterlimit:4;stroke-dasharray:none;stroke-dashoffset:0;stroke-opacity:1;-inkscape-stroke:none"
         d="m 914.2963,322.81845 11.77509,-12.54157"
         id="path18" /></g><g
       id="g19"
       transform="rotate(60.472837,1050.2478,-64.501723)"><circle
         style="font-variation-settings:normal;opacity:1;fill:#803300;fill-opacity:1;stroke:#2c1904;stroke-width:3;stroke-linecap:square;stroke-linejoin:miter;stroke-miterlimit:4;stroke-dasharray:none;stroke-dashoffset:0;stroke-opacity:1"
         id="circle19"
         cx="920.35461"
         cy="316.22638"
         r="10.96417" /><path
         style="font-variation-settings:normal;opacity:1;vector-effect:none;fill:#876015;fill-opacity:1;stroke:#2c1904;stroke-width:4;stroke-linecap:square;stroke-linejoin:miter;stroke-miterlimit:4;stroke-dasharray:none;stroke-dashoffset:0;stroke-opacity:1;-inkscape-stroke:none"
         d="m 914.2963,322.81845 11.77509,-12.54157"
         id="path19" /></g><g
       id="g20"
       transform="rotate(60.472837,1142.3623,154.57654)"><circle
         style="font-variation-settings:normal;opacity:1;fill:#008000;fill-opacity:1;stroke:#2c1904;stroke-width:3;stroke-linecap:square;stroke-linejoin:miter;stroke-miterlimit:4;stroke-dasharray:none;stroke-dashoffset:0;stroke-opacity:1"
         id="circle20"
         cx="920.35461"
         cy="316.22638"
         r="10.96417" /><path
         style="font-variation-settings:normal;opacity:1;vector-effect:none;fill:#876015;fill-opacity:1;stroke:#2c1904;stroke-width:4;stroke-linecap:square;stroke-linejoin:miter;stroke-miterlimit:4;stroke-dasharray:none;stroke-dashoffset:0;stroke-opacity:1;-inkscape-stroke:none"
         d="m 914.2963,322.81845 11.77509,-12.54157"
         id="path20" /></g></g></svg>
